<svg width="90" height="90" viewBox="0 0 90 90" fill="none" xmlns="http://www.w3.org/2000/svg">
<rect width="90" height="90" rx="8" fill="#7F56D9"/>
<g clip-path="url(#clip0_16_285)">
<path d="M42.8564 50.0333C42.6786 50.0333 42.5009 50.1222 42.3231 50.3C42.1453 50.4778 42.0564 50.6778 42.0564 50.9C42.0564 51.1222 42.1453 51.3 42.3231 51.4333C42.5009 51.5667 42.6786 51.6333 42.8564 51.6333C43.0342 51.6333 43.212 51.5667 43.3897 51.4333C43.5675 51.3 43.6564 51.1222 43.6564 50.9C43.6564 50.6778 43.5675 50.4778 43.3897 50.3C43.212 50.1222 43.0342 50.0333 42.8564 50.0333ZM56.8564 27.3667H40.9897L36.0564 22.4333C35.4342 21.8111 34.7009 21.5 33.8564 21.5C33.012 21.5 32.3009 21.7889 31.7231 22.3667C31.1453 22.9444 30.8564 23.6556 30.8564 24.5C30.8564 25.3444 31.1231 26.0778 31.6564 26.7L32.4564 27.3667H28.8564C27.7897 27.3667 26.8786 27.7667 26.1231 28.5667C25.3675 29.3667 24.9897 30.3 24.9897 31.3667V36.4333C24.9897 36.7 25.0564 36.9 25.1897 37.0333C25.3231 37.1667 25.5009 37.2333 25.7231 37.2333C25.9453 37.2333 26.1453 37.1667 26.3231 37.0333C26.5009 36.9 26.5897 36.7 26.5897 36.4333V31.3667C26.5897 30.6556 26.812 30.0778 27.2564 29.6333C27.7009 29.1889 28.2342 28.9667 28.8564 28.9667H34.0564L43.9231 38.8333L43.7897 39.6333C43.7897 41.0556 44.2786 42.2556 45.2564 43.2333C46.1453 44.1222 47.1009 44.7444 48.1231 45.1C49.1453 45.4556 50.412 45.6333 51.9231 45.6333C52.6342 45.6333 53.3897 45.5889 54.1897 45.5C54.5453 45.5 54.7675 45.3444 54.8564 45.0333C54.9453 44.7222 54.9009 44.4333 54.7231 44.1667C54.2786 43.7222 54.012 43.2333 53.9231 42.7C53.8342 42.3444 53.8342 41.7222 53.9231 40.8333C54.012 39.8556 54.012 39.0556 53.9231 38.4333C53.7453 37.5444 53.3231 36.7667 52.6564 36.1C51.9897 35.4333 51.2786 34.9667 50.5231 34.7C49.7675 34.4333 48.9453 34.3889 48.0564 34.5667L42.5897 28.9667H56.8564C57.4786 28.9667 58.0342 29.1889 58.5231 29.6333C59.012 30.0778 59.2564 30.6556 59.2564 31.3667V47.3667H26.5897V43.5C26.5897 43.3222 26.5009 43.1444 26.3231 42.9667C26.1453 42.7889 25.9453 42.7 25.7231 42.7C25.5009 42.7 25.3231 42.7889 25.1897 42.9667C25.0564 43.1444 24.9897 43.3222 24.9897 43.5V50.4333C24.9897 51.5 25.3675 52.4111 26.1231 53.1667C26.8786 53.9222 27.7897 54.3 28.8564 54.3H38.9897V56.8333C37.9231 56.8333 37.012 57.2111 36.2564 57.9667C35.5009 58.7222 35.1231 59.6333 35.1231 60.7C35.1231 60.9667 35.1897 61.1667 35.3231 61.3C35.4564 61.4333 35.6564 61.5 35.9231 61.5H49.7897C50.0564 61.5 50.2564 61.4333 50.3897 61.3C50.5231 61.1667 50.5897 60.9667 50.5897 60.7C50.5897 59.6333 50.212 58.7222 49.4564 57.9667C48.7009 57.2111 47.7897 56.8333 46.7231 56.8333V54.3H56.8564C57.9231 54.3 58.8342 53.9222 59.5897 53.1667C60.3453 52.4111 60.7231 51.5 60.7231 50.4333V31.3667C60.7231 30.3 60.3453 29.3667 59.5897 28.5667C58.8342 27.7667 57.9231 27.3667 56.8564 27.3667ZM32.8564 23.5C33.1231 23.2333 33.4564 23.1 33.8564 23.1C34.2564 23.1 34.5897 23.2333 34.8564 23.5L42.7231 31.3667L40.7231 33.5L32.8564 25.6333C32.5009 25.2778 32.3231 24.9 32.3231 24.5C32.3231 24.1 32.5009 23.7667 32.8564 23.5ZM46.4564 42.1667C46.7231 41.7222 47.0786 41.3444 47.5231 41.0333C47.9675 40.7222 48.5009 40.5222 49.1231 40.4333C50.4564 40.3444 51.5675 39.8111 52.4564 38.8333C52.4564 39.1889 52.412 39.8111 52.3231 40.7C52.3231 41.4111 52.3231 41.9889 52.3231 42.4333C52.3231 43.0556 52.4564 43.6333 52.7231 44.1667C51.3009 44.1667 50.0786 44.0111 49.0564 43.7C48.0342 43.3889 47.1675 42.8778 46.4564 42.1667ZM51.5231 37.1C51.5231 37.1 51.5675 37.1444 51.6564 37.2333C51.3897 37.6778 51.012 38.0556 50.5231 38.3667C50.0342 38.6778 49.5231 38.8778 48.9897 38.9667C47.5675 38.9667 46.412 39.5444 45.5231 40.7C45.4342 40.3444 45.3897 39.9889 45.3897 39.6333C45.3897 38.6556 45.7453 37.8111 46.4564 37.1C47.1675 36.3889 48.012 36.0333 48.9897 36.0333C49.9675 36.0333 50.812 36.3889 51.5231 37.1ZM45.2564 35.9L44.1897 36.9667L41.7897 34.5667L43.9231 32.4333L46.3231 34.9667L45.2564 35.9ZM48.8564 59.9H36.8564C37.0342 59.4556 37.3231 59.1 37.7231 58.8333C38.1231 58.5667 38.5453 58.4333 38.9897 58.4333H46.7231C47.1675 58.4333 47.612 58.5667 48.0564 58.8333C48.5009 59.1 48.7675 59.4556 48.8564 59.9ZM45.2564 56.8333H40.4564V54.3H45.2564V56.8333ZM56.8564 52.7H28.8564C28.2342 52.7 27.7009 52.4778 27.2564 52.0333C26.812 51.5889 26.5897 51.0556 26.5897 50.4333V48.9667H59.2564V50.4333C59.2564 51.0556 59.012 51.5889 58.5231 52.0333C58.0342 52.4778 57.4786 52.7 56.8564 52.7ZM25.7897 40.8333C25.9675 40.8333 26.1453 40.7444 26.3231 40.5667C26.5009 40.3889 26.5897 40.1889 26.5897 39.9667C26.5897 39.7444 26.5009 39.5667 26.3231 39.4333C26.1453 39.3 25.9453 39.2333 25.7231 39.2333C25.5009 39.2333 25.3231 39.3 25.1897 39.4333C25.0564 39.5667 24.9897 39.7444 24.9897 39.9667C24.9897 40.1889 25.0564 40.3889 25.1897 40.5667C25.3231 40.7444 25.5231 40.8333 25.7897 40.8333Z" fill="white"/>
</g>
<defs>
<clipPath id="clip0_16_285">
<rect width="40.02" height="40" fill="white" transform="matrix(1 0 0 -1 24.98 61.5)"/>
</clipPath>
</defs>
</svg>
