<svg width="90" height="90" viewBox="0 0 90 90" fill="none" xmlns="http://www.w3.org/2000/svg">
<rect width="90" height="90" rx="8" fill="#2AAA94"/>
<g clip-path="url(#clip0_16_291)">
<path d="M44.9897 41.5C44.9009 41.5 44.812 41.5 44.7231 41.5L28.8564 35.6333C28.5009 35.4556 28.3231 35.1889 28.3231 34.8333C28.3231 34.4778 28.5009 34.2111 28.8564 34.0333L39.6564 30.0333C39.9231 29.9444 40.1453 29.9667 40.3231 30.1C40.5009 30.2333 40.6342 30.3889 40.7231 30.5667C40.812 30.7444 40.812 30.9444 40.7231 31.1667C40.6342 31.3889 40.5009 31.5444 40.3231 31.6333L31.5231 34.8333L44.9897 39.7667L58.4564 34.8333L49.6564 31.6333C49.4786 31.5444 49.3453 31.3889 49.2564 31.1667C49.1675 30.9444 49.1675 30.7444 49.2564 30.5667C49.3453 30.3889 49.4786 30.2333 49.6564 30.1C49.8342 29.9667 50.0564 29.9444 50.3231 30.0333L61.1231 34.0333C61.4786 34.2111 61.6564 34.4778 61.6564 34.8333C61.6564 35.1889 61.4786 35.4556 61.1231 35.6333L45.2564 41.5H44.9897ZM44.9897 61.5C44.9009 61.5 44.812 61.5 44.7231 61.5L35.7897 58.1667C35.612 58.0778 35.4786 57.9444 35.3897 57.7667C35.3009 57.5889 35.3009 57.3889 35.3897 57.1667C35.4786 56.9444 35.612 56.7889 35.7897 56.7C35.9675 56.6111 36.1897 56.5667 36.4564 56.5667L44.9897 59.7667L53.5231 56.5667C53.7897 56.5667 54.012 56.6111 54.1897 56.7C54.3675 56.7889 54.5009 56.9444 54.5897 57.1667C54.6786 57.3889 54.6786 57.5889 54.5897 57.7667C54.5009 57.9444 54.3675 58.0778 54.1897 58.1667L45.2564 61.5H44.9897ZM29.1231 51.1C28.9453 51.1 28.7675 51.0111 28.5897 50.8333C28.412 50.6556 28.3231 50.4778 28.3231 50.3V34.8333C28.3231 34.5667 28.412 34.3667 28.5897 34.2333C28.7675 34.1 28.9675 34.0333 29.1897 34.0333C29.412 34.0333 29.612 34.1 29.7897 34.2333C29.9675 34.3667 30.0564 34.5667 30.0564 34.8333V50.3C30.0564 50.4778 29.9675 50.6556 29.7897 50.8333C29.612 51.0111 29.3897 51.1 29.1231 51.1ZM60.8564 51.1C60.5897 51.1 60.3675 51.0111 60.1897 50.8333C60.012 50.6556 59.9231 50.4778 59.9231 50.3V34.8333C59.9231 34.5667 60.012 34.3667 60.1897 34.2333C60.3675 34.1 60.5675 34.0333 60.7897 34.0333C61.012 34.0333 61.212 34.1 61.3897 34.2333C61.5675 34.3667 61.6564 34.5667 61.6564 34.8333V50.3C61.6564 50.4778 61.5675 50.6556 61.3897 50.8333C61.212 51.0111 61.0342 51.1 60.8564 51.1ZM44.9897 34.8333C44.7231 34.8333 44.5231 34.7444 44.3897 34.5667C44.2564 34.3889 44.1897 34.2111 44.1897 34.0333V27.3667C44.1897 27.1 44.2564 26.8778 44.3897 26.7C44.5231 26.5222 44.7231 26.4556 44.9897 26.5C45.2564 26.5444 45.4564 26.6333 45.5897 26.7667C45.7231 26.9 45.7897 27.1 45.7897 27.3667V34.0333C45.7897 34.2111 45.7231 34.3889 45.5897 34.5667C45.4564 34.7444 45.2564 34.8333 44.9897 34.8333ZM59.9231 57.2333C59.6564 57.2333 59.4342 57.1444 59.2564 56.9667L55.2564 52.9667C55.0786 52.7889 54.9897 52.5889 54.9897 52.3667C54.9897 52.1444 55.0786 51.9444 55.2564 51.7667C55.4342 51.5889 55.6342 51.5 55.8564 51.5C56.0786 51.5 56.2786 51.5889 56.4564 51.7667L60.4564 55.7667C60.6342 55.9444 60.7231 56.1444 60.7231 56.3667C60.7231 56.5889 60.6342 56.7889 60.4564 56.9667C60.2786 57.1444 60.1009 57.2333 59.9231 57.2333ZM30.0564 57.2333C29.8786 57.2333 29.7009 57.1444 29.5231 56.9667C29.3453 56.7889 29.2564 56.5889 29.2564 56.3667C29.2564 56.1444 29.3453 55.9444 29.5231 55.7667L33.5231 51.7667C33.7009 51.5889 33.9009 51.5 34.1231 51.5C34.3453 51.5 34.5453 51.5889 34.7231 51.7667C34.9009 51.9444 34.9897 52.1444 34.9897 52.3667C34.9897 52.5889 34.9009 52.7889 34.7231 52.9667L30.7231 56.9667C30.5453 57.1444 30.3231 57.2333 30.0564 57.2333ZM44.9897 61.5C44.7231 61.5 44.5231 61.4111 44.3897 61.2333C44.2564 61.0556 44.1897 60.8778 44.1897 60.7V40.7C44.1897 40.4333 44.2564 40.2111 44.3897 40.0333C44.5231 39.8556 44.7231 39.7667 44.9897 39.7667C45.2564 39.7667 45.4564 39.8556 45.5897 40.0333C45.7231 40.2111 45.7897 40.4333 45.7897 40.7V60.7C45.7897 60.8778 45.7231 61.0556 45.5897 61.2333C45.4564 61.4111 45.2564 61.5 44.9897 61.5ZM44.9897 28.1667C44.1009 28.1667 43.3231 27.8333 42.6564 27.1667C41.9897 26.5 41.6564 25.7222 41.6564 24.8333C41.6564 23.9444 41.9897 23.1667 42.6564 22.5C43.3231 21.8333 44.1009 21.5 44.9897 21.5C45.8786 21.5 46.6564 21.8333 47.3231 22.5C47.9897 23.1667 48.3231 23.9444 48.3231 24.8333C48.3231 25.7222 47.9897 26.5 47.3231 27.1667C46.6564 27.8333 45.8786 28.1667 44.9897 28.1667ZM44.9897 23.1C44.5453 23.1 44.1675 23.2778 43.8564 23.6333C43.5453 23.9889 43.3897 24.3889 43.3897 24.8333C43.3897 25.2778 43.5453 25.6556 43.8564 25.9667C44.1675 26.2778 44.5453 26.4333 44.9897 26.4333C45.4342 26.4333 45.8342 26.2778 46.1897 25.9667C46.5453 25.6556 46.7231 25.2778 46.7231 24.8333C46.7231 24.3889 46.5453 23.9889 46.1897 23.6333C45.8342 23.2778 45.4342 23.1 44.9897 23.1ZM61.6564 61.5C60.7675 61.5 59.9897 61.1667 59.3231 60.5C58.6564 59.8333 58.3231 59.0556 58.3231 58.1667C58.3231 57.2778 58.6564 56.5 59.3231 55.8333C59.9897 55.1667 60.7675 54.8333 61.6564 54.8333C62.5453 54.8333 63.3231 55.1667 63.9897 55.8333C64.6564 56.5 64.9897 57.2778 64.9897 58.1667C64.9897 59.0556 64.6564 59.8333 63.9897 60.5C63.3231 61.1667 62.5453 61.5 61.6564 61.5ZM61.6564 56.4333C61.212 56.4333 60.812 56.6111 60.4564 56.9667C60.1009 57.3222 59.9453 57.7222 59.9897 58.1667C60.0342 58.6111 60.212 59.0111 60.5231 59.3667C60.8342 59.7222 61.212 59.8778 61.6564 59.8333C62.1009 59.7889 62.5009 59.6111 62.8564 59.3C63.212 58.9889 63.3897 58.6111 63.3897 58.1667C63.3897 57.7222 63.212 57.3222 62.8564 56.9667C62.5009 56.6111 62.1009 56.4333 61.6564 56.4333ZM28.3231 61.5C27.4342 61.5 26.6564 61.1667 25.9897 60.5C25.3231 59.8333 24.9897 59.0556 24.9897 58.1667C24.9897 57.2778 25.3231 56.5 25.9897 55.8333C26.6564 55.1667 27.4342 54.8333 28.3231 54.8333C29.212 54.8333 29.9897 55.1667 30.6564 55.8333C31.3231 56.5 31.6564 57.2778 31.6564 58.1667C31.6564 59.0556 31.3231 59.8333 30.6564 60.5C29.9897 61.1667 29.212 61.5 28.3231 61.5ZM28.3231 56.4333C27.8786 56.5222 27.4786 56.7222 27.1231 57.0333C26.7675 57.3444 26.612 57.7222 26.6564 58.1667C26.7009 58.6111 26.8786 59.0111 27.1897 59.3667C27.5009 59.7222 27.8786 59.8778 28.3231 59.8333C28.7675 59.7889 29.1675 59.6111 29.5231 59.3C29.8786 58.9889 30.0342 58.6111 29.9897 58.1667C29.9453 57.7222 29.7675 57.3222 29.4564 56.9667C29.1453 56.6111 28.7675 56.4333 28.3231 56.4333Z" fill="white"/>
</g>
<defs>
<clipPath id="clip0_16_291">
<rect width="40.02" height="40" fill="white" transform="matrix(1 0 0 -1 24.98 61.5)"/>
</clipPath>
</defs>
</svg>
