<svg width="18" height="18" viewBox="0 0 18 18" fill="none" xmlns="http://www.w3.org/2000/svg">
<path d="M16.9327 12.9992V15.3742C16.9336 15.5947 16.8885 15.813 16.8002 16.015C16.7118 16.217 16.5823 16.3983 16.4198 16.5474C16.2573 16.6964 16.0655 16.8099 15.8567 16.8806C15.6478 16.9512 15.4265 16.9774 15.2069 16.9576C12.7708 16.6929 10.4308 15.8604 8.37483 14.5272C6.46203 13.3117 4.84031 11.69 3.62483 9.77716C2.2869 7.71186 1.45427 5.36045 1.19441 2.91341C1.17463 2.69449 1.20065 2.47385 1.27081 2.26553C1.34097 2.05721 1.45374 1.86579 1.60194 1.70344C1.75013 1.5411 1.93051 1.41139 2.13158 1.32257C2.33265 1.23376 2.55002 1.18778 2.76983 1.18758H5.14483C5.52903 1.1838 5.9015 1.31985 6.19281 1.57037C6.48412 1.8209 6.67439 2.16881 6.72816 2.54924C6.82841 3.3093 7.01431 4.05557 7.28233 4.77383C7.38884 5.05718 7.4119 5.36513 7.34876 5.66119C7.28562 5.95725 7.13893 6.229 6.92608 6.44424L5.92066 7.44966C7.04765 9.43163 8.68869 11.0727 10.6707 12.1997L11.6761 11.1942C11.8913 10.9814 12.1631 10.8347 12.4591 10.7716C12.7552 10.7084 13.0631 10.7315 13.3465 10.838C14.0648 11.106 14.811 11.2919 15.5711 11.3922C15.9556 11.4464 16.3069 11.6401 16.5579 11.9364C16.809 12.2327 16.9424 12.611 16.9327 12.9992Z" stroke="white" stroke-width="1.3" stroke-linecap="round" stroke-linejoin="round"/>
</svg>
